PathFileType	4	(X/Y/Z)	markers_0_video_left_upright_43fa9c767a284c608474a81e5a60fe99.trc
DataRate	CameraRate	NumFrames	NumMarkers	Units	OrigDataRate	OrigDataStartFrame	OrigNumFrames
12.500000	12.500000	4	42	mm	12.500000	1131	3015
Frame#	Time	Nose			LEye			REye			LEar			REar			LShoulder			RShoulder			LElbow			RElbow			LHip			RHip			LKnee			RKnee			LAnkle			RAnkle			LBigToe			LSmallToe			LHeel			RBigToe			RSmallToe			RHeel			RIndex			RPinky			RWrist			LIndex			LPinky			LWrist			LOlecranon			ROlecranon			LCubitalFossa			RCubitalFossa			LAcromion			RAcromion			Neck			PelvisCenter			Thorax			c_spine0			c_spine1			c_spine2			c_spine3			c_neck			c_head
		X1	Y1	Z1	X2	Y2	Z2	X3	Y3	Z3	X4	Y4	Z4	X5	Y5	Z5	X6	Y6	Z6	X7	Y7	Z7	X8	Y8	Z8	X9	Y9	Z9	X10	Y10	Z10	X11	Y11	Z11	X12	Y12	Z12	X13	Y13	Z13	X14	Y14	Z14	X15	Y15	Z15	X16	Y16	Z16	X17	Y17	Z17	X18	Y18	Z18	X19	Y19	Z19	X20	Y20	Z20	X21	Y21	Z21	X22	Y22	Z22	X23	Y23	Z23	X24	Y24	Z24	X25	Y25	Z25	X26	Y26	Z26	X27	Y27	Z27	X28	Y28	Z28	X29	Y29	Z29	X30	Y30	Z30	X31	Y31	Z31	X32	Y32	Z32	X33	Y33	Z33	X34	Y34	Z34	X35	Y35	Z35	X36	Y36	Z36	X37	Y37	Z37	X38	Y38	Z38	X39	Y39	Z39	X40	Y40	Z40	X41	Y41	Z41	X42	Y42	Z42

1131	90.400000	2772.498279	1146.409043	1554.389370	2737.254300	1188.788597	1613.644418	2697.204827	1170.109364	1538.400019	2753.619706	1332.249359	1640.708454	2659.609371	1288.456916	1460.003802	2985.555159	1498.803842	1613.903365	2745.819797	1358.713955	1239.392271	3358.605524	1456.000053	1610.445884	2886.520373	1184.967863	933.362082	3525.262632	1330.367891	1237.908309	3441.229043	1257.106860	1028.605250	3952.707626	935.011676	1300.714084	3787.884842	794.201853	933.674266	4457.308835	755.202902	1183.198316	4244.005555	524.267305	807.697636	4435.156684	539.039357	1337.675353	4495.726684	624.187293	1364.645536	4528.908036	758.236652	1145.072193	4275.143645	266.304733	897.027828	4274.910375	289.605436	791.989721	4312.058254	542.976821	775.673762	2859.112821	832.913555	1331.994967	2906.217519	804.678763	1263.151987	2859.774401	918.401247	1162.366636	3007.234932	1056.942997	1479.763460	3091.854575	1055.247318	1459.671251	3143.290150	1177.117996	1547.267439	3394.638434	1446.086282	1605.023470	2904.182125	1168.920488	897.405340	3309.723376	1440.601024	1600.691568	2877.610960	1181.958336	982.025238	2942.482155	1474.338078	1643.799914	2706.922955	1338.796466	1274.666019	2838.629884	1382.117371	1455.930384	3483.245838	1293.737375	1133.256779	2824.702555	1406.567272	1459.232966	3456.762336	1363.464759	1119.488139	3317.115847	1403.947567	1171.470642	3179.809486	1457.786929	1223.559665	2958.640412	1463.079748	1354.293129	2858.704244	1403.380216	1437.804375	2778.406553	1318.329138	1510.308445
1132	90.480000	2705.777271	1168.218799	1559.122114	2666.276054	1217.966704	1608.955331	2630.754080	1185.518312	1535.661829	2676.271609	1365.753041	1612.975288	2593.200537	1289.128433	1437.059857	2926.808890	1498.882207	1590.634473	2688.225186	1359.615294	1207.245401	3294.744065	1452.471834	1582.188726	2882.016785	1212.146540	923.617315	3463.377621	1319.133896	1238.662475	3386.222263	1241.132599	1032.044301	3911.290596	951.880783	1299.439790	3759.880964	802.644331	949.559684	4419.926207	765.272108	1206.531969	4227.838753	547.476615	829.917339	4391.555829	548.573328	1359.832975	4451.476463	633.504862	1389.029188	4493.224478	767.426687	1171.337649	4248.227103	289.822789	918.798714	4250.397133	313.363153	813.740501	4297.652719	564.984894	798.733640	2835.960945	880.032279	1329.365582	2896.957748	853.332984	1270.814035	2854.741681	952.494915	1156.096303	2969.954262	1026.936906	1485.736664	3053.536861	1028.742485	1462.934776	3100.412927	1159.350224	1540.761189	3332.259690	1444.014941	1576.918151	2905.911509	1198.525410	891.610049	3246.232022	1434.696203	1574.262627	2867.151432	1208.320650	970.376681	2882.358168	1477.204961	1619.499574	2648.329080	1339.077704	1239.167095	2773.642250	1387.544873	1429.505390	3424.799942	1280.133248	1135.353388	2765.343624	1408.141332	1429.333335	3397.709376	1348.977856	1119.476591	3258.018791	1389.514266	1165.400634	3121.332553	1446.268290	1209.638991	2898.133413	1461.830540	1329.612004	2795.416827	1405.997960	1410.091472	2708.318737	1332.185286	1487.747090
1133	90.560000	2663.938387	1142.109926	1477.858526	2639.415713	1187.720406	1541.337637	2604.153680	1194.897069	1460.554568	2704.249008	1311.399550	1592.490096	2621.884959	1328.816047	1398.497873	2967.864002	1463.376661	1590.466618	2743.415946	1333.744861	1189.504372	3337.743969	1408.056608	1595.310238	2963.382347	1176.420050	927.924956	3515.677274	1280.108241	1225.635870	3438.081865	1200.158349	1030.735071	3963.300643	934.277517	1280.321399	3799.911891	767.170415	959.783817	4461.027430	763.318027	1186.203053	4260.061055	528.935776	839.379286	4438.113000	546.226991	1340.751795	4497.485590	631.941651	1369.134971	4532.507337	767.685639	1150.892309	4258.284191	270.007951	920.707188	4263.605597	296.276209	816.364381	4331.046866	544.792107	810.032285	2896.606787	859.757527	1354.092904	2963.562051	828.182804	1298.072136	2925.316257	930.316093	1176.519526	2997.319237	1002.483096	1451.873917	3084.790690	1001.569835	1434.094621	3129.889353	1126.475307	1524.491620	3375.022297	1398.151945	1591.189752	2990.043339	1161.389607	898.461892	3288.730878	1392.829222	1583.854036	2945.155928	1175.054494	973.983570	2921.946118	1439.816400	1616.468156	2702.116314	1315.208538	1219.360981	2818.711777	1358.791231	1415.513974	3476.879569	1240.133295	1128.185471	2812.031216	1377.512469	1417.914568	3449.572015	1309.057328	1110.757430	3311.094937	1352.610234	1158.491519	3175.900550	1412.948971	1203.723027	2952.020971	1431.664106	1322.719364	2846.084187	1376.971276	1399.953608	2736.594639	1304.251040	1462.195110
1134	90.640000	2477.838540	1160.177235	1417.269764	2453.521534	1205.265134	1481.590212	2426.232126	1221.054822	1398.853244	2528.316191	1318.075434	1545.678459	2465.184733	1355.763543	1347.410290	2812.771533	1471.665663	1558.367722	2602.097339	1335.564606	1149.617856	3186.191718	1423.558499	1566.251083	2852.113253	1185.479670	906.903650	3373.144725	1266.313492	1231.358622	3304.721769	1185.628203	1036.230281	3835.186243	945.597877	1280.085710	3694.650988	783.473122	969.145196	4339.044057	792.287199	1192.968572	4163.974230	558.996011	861.381361	4319.530427	569.435332	1339.609081	4375.219217	656.094373	1372.476088	4411.178941	800.103896	1159.505631	4156.560649	296.735951	929.882069	4166.666061	328.131740	827.151131	4236.668338	576.124825	836.420613	2790.546337	867.319927	1330.333889	2862.413313	842.923497	1276.796072	2814.999152	938.040788	1154.262570	2872.928203	999.190006	1426.791586	2960.595222	1004.625932	1410.161905	2996.478895	1128.690000	1503.557951	3224.816325	1415.426513	1562.512867	2882.277310	1172.044531	879.253180	3137.614859	1405.844518	1555.189900	2830.517788	1183.354331	951.676373	2765.527207	1449.798915	1583.550850	2559.431280	1318.130607	1176.073774	2662.797378	1365.521402	1378.608174	3338.933247	1225.970848	1133.794452	2662.479243	1383.964761	1379.812312	3311.946624	1294.252847	1115.050086	3171.430808	1337.972633	1155.127482	3035.434041	1402.226969	1190.315820	2805.382714	1432.393876	1293.411562	2693.618161	1382.696813	1365.407931	2570.335117	1313.994960	1418.208930
